<svg width="132" height="69" viewBox="0 0 132 69" fill="none" xmlns="http://www.w3.org/2000/svg">
<g id="Vector">
<path d="M97.5652 -1.18451e-05C96.4748 -1.18451e-05 95.3981 0.0528881 94.3329 0.151788C92.058 0.250688 89.5511 0.747488 86.7871 1.72499C84.3055 2.54379 81.9502 3.63399 79.7533 4.96799C50.1141 21.5234 38.4637 3.52819 36.82 0.609488L36.6134 0.220788C36.6134 0.220788 36.5743 0.292088 36.5032 0.430088L0 69C18.4692 69 42.1288 69 57.6784 69C69.3807 69 71.9406 61.2023 84.3698 66.3734C88.4331 68.0639 92.889 69 97.5652 69C116.582 69 132 53.5532 132 34.5C132 15.4468 116.582 -1.18451e-05 97.5652 -1.18451e-05Z" fill="#ECECEC"/>
<path d="M97.5652 -1.18451e-05C96.4748 -1.18451e-05 95.3981 0.0528881 94.3329 0.151788C92.058 0.250688 89.5511 0.747488 86.7871 1.72499C84.3055 2.54379 81.9502 3.63399 79.7533 4.96799C50.1141 21.5234 38.4637 3.52819 36.82 0.609488L36.6134 0.220788C36.6134 0.220788 36.5743 0.292088 36.5032 0.430088L0 69C18.4692 69 42.1288 69 57.6784 69C69.3807 69 71.9406 61.2023 84.3698 66.3734C88.4331 68.0639 92.889 69 97.5652 69C116.582 69 132 53.5532 132 34.5C132 15.4468 116.582 -1.18451e-05 97.5652 -1.18451e-05Z" fill="url(#paint0_radial_6_834)" fill-opacity="0.2"/>
<path d="M97.5652 -1.18451e-05C96.4748 -1.18451e-05 95.3981 0.0528881 94.3329 0.151788C92.058 0.250688 89.5511 0.747488 86.7871 1.72499C84.3055 2.54379 81.9502 3.63399 79.7533 4.96799C50.1141 21.5234 38.4637 3.52819 36.82 0.609488L36.6134 0.220788C36.6134 0.220788 36.5743 0.292088 36.5032 0.430088L0 69C18.4692 69 42.1288 69 57.6784 69C69.3807 69 71.9406 61.2023 84.3698 66.3734C88.4331 68.0639 92.889 69 97.5652 69C116.582 69 132 53.5532 132 34.5C132 15.4468 116.582 -1.18451e-05 97.5652 -1.18451e-05Z" fill="url(#paint1_radial_6_834)" fill-opacity="0.5"/>
<path d="M97.5652 -1.18451e-05C96.4748 -1.18451e-05 95.3981 0.0528881 94.3329 0.151788C92.058 0.250688 89.5511 0.747488 86.7871 1.72499C84.3055 2.54379 81.9502 3.63399 79.7533 4.96799C50.1141 21.5234 38.4637 3.52819 36.82 0.609488L36.6134 0.220788C36.6134 0.220788 36.5743 0.292088 36.5032 0.430088L0 69C18.4692 69 42.1288 69 57.6784 69C69.3807 69 71.9406 61.2023 84.3698 66.3734C88.4331 68.0639 92.889 69 97.5652 69C116.582 69 132 53.5532 132 34.5C132 15.4468 116.582 -1.18451e-05 97.5652 -1.18451e-05Z" fill="url(#paint2_radial_6_834)" fill-opacity="0.6"/>
<path d="M97.5652 -1.18451e-05C96.4748 -1.18451e-05 95.3981 0.0528881 94.3329 0.151788C92.058 0.250688 89.5511 0.747488 86.7871 1.72499C84.3055 2.54379 81.9502 3.63399 79.7533 4.96799C50.1141 21.5234 38.4637 3.52819 36.82 0.609488L36.6134 0.220788C36.6134 0.220788 36.5743 0.292088 36.5032 0.430088L0 69C18.4692 69 42.1288 69 57.6784 69C69.3807 69 71.9406 61.2023 84.3698 66.3734C88.4331 68.0639 92.889 69 97.5652 69C116.582 69 132 53.5532 132 34.5C132 15.4468 116.582 -1.18451e-05 97.5652 -1.18451e-05Z" fill="url(#paint3_radial_6_834)" fill-opacity="0.9"/>
<path d="M97.5652 -1.18451e-05C96.4748 -1.18451e-05 95.3981 0.0528881 94.3329 0.151788C92.058 0.250688 89.5511 0.747488 86.7871 1.72499C84.3055 2.54379 81.9502 3.63399 79.7533 4.96799C50.1141 21.5234 38.4637 3.52819 36.82 0.609488L36.6134 0.220788C36.6134 0.220788 36.5743 0.292088 36.5032 0.430088L0 69C18.4692 69 42.1288 69 57.6784 69C69.3807 69 71.9406 61.2023 84.3698 66.3734C88.4331 68.0639 92.889 69 97.5652 69C116.582 69 132 53.5532 132 34.5C132 15.4468 116.582 -1.18451e-05 97.5652 -1.18451e-05Z" fill="url(#paint4_radial_6_834)" fill-opacity="0.2"/>
</g>
<defs>
<radialGradient id="paint0_radial_6_834" cx="0" cy="0" r="1" gradientUnits="userSpaceOnUse" gradientTransform="translate(125.881 25.1022) rotate(160.542) scale(31.8034 34.8641)">
<stop stop-color="white"/>
<stop offset="1" stop-color="white" stop-opacity="0"/>
</radialGradient>
<radialGradient id="paint1_radial_6_834" cx="0" cy="0" r="1" gradientUnits="userSpaceOnUse" gradientTransform="translate(92.2367 -3.5746) rotate(123.948) scale(63.1934 59.5703)">
<stop stop-color="white"/>
<stop offset="1" stop-color="white" stop-opacity="0"/>
</radialGradient>
<radialGradient id="paint2_radial_6_834" cx="0" cy="0" r="1" gradientUnits="userSpaceOnUse" gradientTransform="translate(42.8678 5.74077) rotate(-26.5408) scale(23.7089 139.969)">
<stop/>
<stop offset="1" stop-color="white" stop-opacity="0"/>
</radialGradient>
<radialGradient id="paint3_radial_6_834" cx="0" cy="0" r="1" gradientUnits="userSpaceOnUse" gradientTransform="translate(121.675 8.66324) rotate(130.4) scale(73.6336 100.678)">
<stop stop-color="#FF0000"/>
<stop offset="1" stop-color="#FF0000" stop-opacity="0"/>
</radialGradient>
<radialGradient id="paint4_radial_6_834" cx="0" cy="0" r="1" gradientUnits="userSpaceOnUse" gradientTransform="translate(76.6946 31.1297) rotate(115.82) scale(24.3494 46.5627)">
<stop stop-color="white"/>
<stop offset="1" stop-color="white" stop-opacity="0"/>
</radialGradient>
</defs>
</svg>
