<svg width="70" height="34" viewBox="0 0 70 34" fill="none" xmlns="http://www.w3.org/2000/svg">
<path d="M44.8446 24.454L39.6266 10.5481L46.7843 22.5731L48.1802 21.2165L41.2769 9.62311L49.8846 19.5669L51.236 18.2534L42.7396 8.43602L52.8673 16.6747L54.2219 15.3612L43.967 7.01769L55.923 13.7116L57.319 12.358L44.921 5.41435L59.2587 10.4772L60.7468 9.03419L45.5728 3.67534L63.1698 6.68469L64.8138 5.08751L45.9035 1.85617L68.1494 1.85617L70 0.058585L70 0.00616821L45.9035 0.00616769L45.9353 1.00395e-06L24.0679 5.2602e-07L24.0997 0.00616721L-1.34777e-10 0.00616668L-1.41516e-09 0.0647502L1.84746 1.85617L24.0965 1.85617L5.18306 5.0906L6.8302 6.68468L24.4304 3.67843L9.25002 9.03419L10.7382 10.4772L25.0822 5.41435L12.6778 12.358L14.077 13.7116L26.0362 7.01769L15.7781 15.3643L17.1327 16.6778L27.2604 8.43602L18.7608 18.2565L20.1154 19.57L28.7231 9.62311L21.8166 21.2196L23.2157 22.5731L30.3734 10.5481L25.1554 24.4571L26.6435 25.9001L32.1668 11.1833L29.0633 28.2465L30.7105 29.8437L34.0461 11.5009L34.0461 33.0781L35 34L35.9539 33.075L35.9539 11.5039L39.2895 29.8406L40.9367 28.2434L37.8332 11.1833L43.3565 25.897L44.8446 24.454Z" fill="#DDDDDD"/>
<path d="M44.8446 24.454L39.6266 10.5481L46.7843 22.5731L48.1802 21.2165L41.2769 9.62311L49.8846 19.5669L51.236 18.2534L42.7396 8.43602L52.8673 16.6747L54.2219 15.3612L43.967 7.01769L55.923 13.7116L57.319 12.358L44.921 5.41435L59.2587 10.4772L60.7468 9.03419L45.5728 3.67534L63.1698 6.68469L64.8138 5.08751L45.9035 1.85617L68.1494 1.85617L70 0.058585L70 0.00616821L45.9035 0.00616769L45.9353 1.00395e-06L24.0679 5.2602e-07L24.0997 0.00616721L-1.34777e-10 0.00616668L-1.41516e-09 0.0647502L1.84746 1.85617L24.0965 1.85617L5.18306 5.0906L6.8302 6.68468L24.4304 3.67843L9.25002 9.03419L10.7382 10.4772L25.0822 5.41435L12.6778 12.358L14.077 13.7116L26.0362 7.01769L15.7781 15.3643L17.1327 16.6778L27.2604 8.43602L18.7608 18.2565L20.1154 19.57L28.7231 9.62311L21.8166 21.2196L23.2157 22.5731L30.3734 10.5481L25.1554 24.4571L26.6435 25.9001L32.1668 11.1833L29.0633 28.2465L30.7105 29.8437L34.0461 11.5009L34.0461 33.0781L35 34L35.9539 33.075L35.9539 11.5039L39.2895 29.8406L40.9367 28.2434L37.8332 11.1833L43.3565 25.897L44.8446 24.454Z" fill="white"/>
</svg>
